<svg width="34" height="33" viewBox="0 0 34 33" fill="none" xmlns="http://www.w3.org/2000/svg">
<path d="M23.589 8.50021C23.589 5.81769 25.7636 3.64307 28.4461 3.64307H31.1445V24.2859C31.1445 26.9684 28.9699 29.1431 26.2874 29.1431H22.6445L22.9241 28.5343C23.3622 27.5804 23.589 26.5432 23.589 25.4936V8.50021Z" fill="#3066FB"/>
<path d="M13.8741 15.7859C13.8741 13.1033 16.0487 10.9287 18.7313 10.9287H21.4297V24.2859C21.4297 26.9684 19.2551 29.143 16.5725 29.143H12.9297V29.143C13.5463 28.184 13.8741 27.0679 13.8741 25.9278V15.7859Z" fill="#678FFC"/>
<path d="M3.21484 24.8931C3.21484 22.5459 5.11763 20.6431 7.46484 20.6431H11.7148V24.8931C11.7148 27.2403 9.81205 29.1431 7.46484 29.1431V29.1431C5.11763 29.1431 3.21484 27.2403 3.21484 24.8931V24.8931Z" fill="#93AFFD"/>
</svg>