<svg width="131" height="28" viewBox="0 0 131 28" fill="none" xmlns="http://www.w3.org/2000/svg">
<path d="M33 8.92891V6.2907H45.1457V8.92891H40.4709V22.6342H37.6748V8.92891H33Z" fill="white"/>
<path d="M48.311 22.6342L44.8158 11.5895H47.5901L49.01 16.3293C49.2503 17.2013 49.4688 18.1626 49.6654 19.1911C49.862 18.1179 50.0586 17.4248 50.4081 16.3293L51.8936 11.5895H54.6023L56.0441 16.3293C56.1751 16.7765 56.612 18.4309 56.7431 19.1687C56.9179 18.3415 57.2674 17.0224 57.464 16.3293L58.9058 11.5895H61.7237L57.9883 22.6342H55.498L54.0125 17.8496C53.5756 16.3964 53.3353 15.3456 53.2479 14.7866C53.1387 15.3009 52.9421 16.0834 52.396 17.8944L50.9105 22.6342H48.311Z" fill="white"/>
<path d="M64.6701 9.37606C63.7526 9.37606 63.0317 8.63826 63.0317 7.72159C63.0317 6.80492 63.7526 6.08948 64.6701 6.08948C65.5438 6.08948 66.2647 6.80492 66.2647 7.72159C66.2647 8.63826 65.5438 9.37606 64.6701 9.37606ZM63.3375 22.6342V11.5895H66.0026V22.6342H63.3375Z" fill="white"/>
<path d="M71.4211 22.6342H68.7561V11.5895H71.2245L71.443 13.0204C72.1202 11.9025 73.4309 11.2541 74.8945 11.2541C77.6032 11.2541 79.0013 12.9757 79.0013 15.8374V22.6342H76.3362V16.4858C76.3362 14.6301 75.4406 13.7358 74.0644 13.7358C72.426 13.7358 71.4211 14.8984 71.4211 16.687V22.6342Z" fill="white"/>
<path d="M84.8305 22.9248C82.5367 22.9248 81.1387 21.561 81.1387 19.4817C81.1387 17.4472 82.5804 16.1728 85.1363 15.9715L88.3693 15.7256V15.4797C88.3693 13.9817 87.4955 13.378 86.1411 13.378C84.5683 13.378 83.6945 14.0488 83.6945 15.2114H81.4227C81.4227 12.8191 83.345 11.2541 86.2722 11.2541C89.1776 11.2541 90.9688 12.8638 90.9688 15.9268V22.6341H88.6315L88.4348 21.002C87.9761 22.1423 86.5125 22.9248 84.8305 22.9248ZM85.7042 20.8679C87.3426 20.8679 88.3912 19.8618 88.3912 18.1626V17.5813L86.1411 17.7602C84.4809 17.9167 83.8474 18.4756 83.8474 19.3699C83.8474 20.376 84.5028 20.8679 85.7042 20.8679Z" fill="white"/>
<path d="M96.2739 22.6341H93.6307V6H96.2739V22.6341Z" fill="white"/>
<path d="M98.1302 27.7541V25.4736H99.7249C100.773 25.4736 101.429 25.2276 101.888 23.9309L102.193 23.1037L97.8462 11.5894H100.664L103.438 19.6382L106.366 11.5894H109.118L103.832 25.0935C103.023 27.1504 101.888 28 100.118 28C99.3754 28 98.72 27.9106 98.1302 27.7541Z" fill="white"/>
<path d="M118.78 22.6341H110.064V20.3984L115.438 13.8699H110.064V11.5894H118.78V13.8476L113.319 20.3537H118.78V22.6341Z" fill="white"/>
<path d="M125.657 22.9248C122.446 22.9248 120.196 20.5325 120.196 17.1118C120.196 13.6463 122.402 11.2541 125.569 11.2541C128.802 11.2541 130.856 13.4675 130.856 16.9106V17.7378L122.73 17.7602C122.926 19.7053 123.931 20.689 125.7 20.689C127.164 20.689 128.125 20.1077 128.431 19.0569H130.899C130.441 21.4715 128.475 22.9248 125.657 22.9248ZM125.591 13.4898C124.018 13.4898 123.057 14.3618 122.795 16.0163H128.213C128.213 14.4959 127.186 13.4898 125.591 13.4898Z" fill="white"/>
<path d="M18.7778 7C18.7778 4.79086 20.5686 3 22.7778 3H25V20C25 22.2091 23.2091 24 21 24H18L18.2303 23.4986C18.591 22.7131 18.7778 21.8589 18.7778 20.9945V7Z" fill="white"/>
<path d="M10.7778 13C10.7778 10.7909 12.5686 9 14.7778 9H17V20C17 22.2091 15.2091 24 13 24H10V24C10.5078 23.2102 10.7778 22.2911 10.7778 21.3522V13Z" fill="white"/>
<path d="M2 20.5C2 18.567 3.567 17 5.5 17H9V20.5C9 22.433 7.433 24 5.5 24V24C3.567 24 2 22.433 2 20.5V20.5Z" fill="white"/>
</svg>
