<svg width="160" height="34" viewBox="0 0 160 34" fill="none" xmlns="http://www.w3.org/2000/svg">
<path d="M40.8555 10.8419V7.63838H55.6039V10.8419H49.9273V27.4841H46.532V10.8419H40.8555Z" fill="#0F2359"/>
<path d="M59.4474 27.4841L55.2033 14.0726H58.5721L60.2962 19.8281C60.588 20.8869 60.8533 22.0543 61.092 23.3032C61.3307 22 61.5695 21.1584 61.9939 19.8281L63.7976 14.0726H67.0869L68.8376 19.8281C68.9967 20.3711 69.5272 22.3801 69.6864 23.276C69.8986 22.2715 70.323 20.6697 70.5617 19.8281L72.3125 14.0726H75.7343L71.1984 27.4841H68.1744L66.3707 21.6742C65.8401 19.9096 65.5484 18.6336 65.4423 17.9549C65.3096 18.5793 65.0709 19.5295 64.4077 21.7285L62.604 27.4841H59.4474Z" fill="#0F2359"/>
<path d="M79.312 11.3849C78.1979 11.3849 77.3225 10.489 77.3225 9.37589C77.3225 8.2628 78.1979 7.39404 79.312 7.39404C80.373 7.39404 81.2484 8.2628 81.2484 9.37589C81.2484 10.489 80.373 11.3849 79.312 11.3849ZM77.6939 27.4841V14.0726H80.93V27.4841H77.6939Z" fill="#0F2359"/>
<path d="M87.5097 27.4841H84.2735V14.0726H87.271L87.5362 15.8101C88.3585 14.4527 89.9501 13.6654 91.7273 13.6654C95.0165 13.6654 96.7142 15.7558 96.7142 19.2309V27.4841H93.478V20.0182C93.478 17.7648 92.3905 16.6789 90.7193 16.6789C88.7299 16.6789 87.5097 18.0906 87.5097 20.2625V27.4841Z" fill="#0F2359"/>
<path d="M103.795 27.8372C101.01 27.8372 99.3125 26.1811 99.3125 23.6563C99.3125 21.1858 101.063 19.6383 104.167 19.3939L108.093 19.0953V18.7967C108.093 16.9777 107.032 16.2447 105.387 16.2447C103.477 16.2447 102.416 17.0592 102.416 18.4709H99.6573C99.6573 15.566 101.992 13.6656 105.546 13.6656C109.074 13.6656 111.249 15.6203 111.249 19.3397V27.4843H108.411L108.172 25.5024C107.615 26.887 105.838 27.8372 103.795 27.8372ZM104.856 25.3395C106.846 25.3395 108.119 24.1178 108.119 22.0545V21.3487L105.387 21.5658C103.371 21.7559 102.602 22.4346 102.602 23.5205C102.602 24.7422 103.397 25.3395 104.856 25.3395Z" fill="#0F2359"/>
<path d="M117.691 27.4843H114.481V7.28564H117.691V27.4843Z" fill="#0F2359"/>
<path d="M119.945 33.7013V30.9321H121.881C123.155 30.9321 123.95 30.6335 124.508 29.0589L124.879 28.0544L119.6 14.0728H123.022L126.391 23.8463L129.945 14.0728H133.288L126.868 30.4706C125.887 32.9683 124.508 33.9999 122.359 33.9999C121.457 33.9999 120.661 33.8913 119.945 33.7013Z" fill="#0F2359"/>
<path d="M145.02 27.4843H134.436V24.7694L140.961 16.842H134.436V14.0728H145.02V16.8148L138.388 24.7151H145.02V27.4843Z" fill="#0F2359"/>
<path d="M153.37 27.8372C149.471 27.8372 146.739 24.9323 146.739 20.7785C146.739 16.5705 149.418 13.6656 153.264 13.6656C157.19 13.6656 159.683 16.3533 159.683 20.5342V21.5387L149.816 21.5658C150.054 23.9278 151.275 25.1223 153.423 25.1223C155.2 25.1223 156.368 24.4165 156.739 23.1405H159.736C159.179 26.0725 156.792 27.8372 153.37 27.8372ZM153.291 16.3804C151.381 16.3804 150.214 17.4392 149.895 19.4482H156.474C156.474 17.6021 155.227 16.3804 153.291 16.3804Z" fill="#0F2359"/>
<path d="M23.589 8.50021C23.589 5.81769 25.7636 3.64307 28.4461 3.64307H31.1445V24.2859C31.1445 26.9684 28.9699 29.1431 26.2874 29.1431H22.6445L22.9241 28.5343C23.3622 27.5804 23.589 26.5432 23.589 25.4936V8.50021Z" fill="#3066FB"/>
<path d="M13.8741 15.7859C13.8741 13.1033 16.0487 10.9287 18.7313 10.9287H21.4297V24.2859C21.4297 26.9684 19.2551 29.143 16.5725 29.143H12.9297V29.143C13.5463 28.184 13.8741 27.0679 13.8741 25.9278V15.7859Z" fill="#678FFC"/>
<path d="M3.21484 24.8931C3.21484 22.5459 5.11763 20.6431 7.46484 20.6431H11.7148V24.8931C11.7148 27.2403 9.81205 29.1431 7.46484 29.1431V29.1431C5.11763 29.1431 3.21484 27.2403 3.21484 24.8931V24.8931Z" fill="#93AFFD"/>
</svg>
